<svg width="64" height="64" viewBox="0 0 64 64" fill="none" xmlns="http://www.w3.org/2000/svg">
<path d="M31.9993 16.2593C37.1259 16.2593 37.7332 16.2788 39.7577 16.3712C41.6297 16.4566 42.6464 16.7694 43.323 17.0323C44.2192 17.3806 44.8587 17.7966 45.5305 18.4684C46.2025 19.1404 46.6185 19.78 46.9668 20.6761C47.2297 21.3528 47.5425 22.3694 47.628 24.2412C47.7203 26.2659 47.7398 26.8731 47.7398 31.9996C47.7398 37.1264 47.7203 37.7336 47.628 39.7582C47.5425 41.6302 47.2297 42.6467 46.9668 43.3233C46.6185 44.2195 46.2025 44.8592 45.5307 45.531C44.8587 46.2029 44.2192 46.6188 43.323 46.9672C42.6464 47.2302 41.6297 47.5428 39.7577 47.6283C37.7336 47.7206 37.1264 47.7403 31.9993 47.7403C26.8723 47.7403 26.2652 47.7206 24.2409 47.6283C22.3689 47.5428 21.3523 47.2302 20.6756 46.9672C19.7795 46.6188 19.14 46.2029 18.4681 45.531C17.7963 44.8592 17.3801 44.2195 17.0318 43.3233C16.7689 42.6467 16.4561 41.6302 16.3707 39.7582C16.2784 37.7336 16.2588 37.1264 16.2588 31.9996C16.2588 26.8731 16.2784 26.2659 16.3707 24.2412C16.4561 22.3694 16.7689 21.3528 17.0318 20.6761C17.3801 19.78 17.7961 19.1404 18.4681 18.4686C19.14 17.7966 19.7795 17.3806 20.6756 17.0323C21.3523 16.7694 22.3689 16.4566 24.2409 16.3712C26.2654 16.2788 26.8728 16.2593 31.9993 16.2593ZM31.9993 12.7998C26.7849 12.7998 26.131 12.8219 24.0832 12.9153C22.0396 13.0086 20.6438 13.3331 19.4225 13.8078C18.16 14.2984 17.0892 14.9548 16.0219 16.0224C14.9544 17.0897 14.2979 18.1604 13.8073 19.423C13.3326 20.6443 13.0081 22.04 12.9148 24.0836C12.8214 26.1315 12.7993 26.7854 12.7993 31.9996C12.7993 37.2142 12.8214 37.868 12.9148 39.9158C13.0081 41.9595 13.3326 43.3552 13.8073 44.5764C14.2979 45.839 14.9544 46.9097 16.0219 47.9772C17.0892 49.0446 18.16 49.7011 19.4225 50.1916C20.6438 50.6664 22.0396 50.9908 24.0832 51.0841C26.131 51.1776 26.7849 51.1996 31.9993 51.1996C37.2137 51.1996 37.8676 51.1776 39.9155 51.0841C41.959 50.9908 43.3548 50.6664 44.5761 50.1916C45.8387 49.7011 46.9094 49.0446 47.9768 47.9772C49.0441 46.9097 49.7008 45.839 50.1913 44.5764C50.666 43.3552 50.9905 41.9595 51.0838 39.9158C51.1772 37.868 51.1993 37.2142 51.1993 31.9996C51.1993 26.7854 51.1772 26.1315 51.0838 24.0836C50.9905 22.04 50.666 20.6443 50.1913 19.423C49.7008 18.1604 49.0441 17.0897 47.9768 16.0224C46.9094 14.9548 45.8387 14.2984 44.5761 13.8078C43.3548 13.3331 41.959 13.0086 39.9155 12.9153C37.8676 12.8219 37.2137 12.7998 31.9993 12.7998Z" fill="white"/>
<path d="M32.0098 22.1494C26.5645 22.1494 22.1504 26.5635 22.1504 32.0088C22.1504 37.4541 26.5645 41.8681 32.0098 41.8681C37.455 41.8681 41.8693 37.4541 41.8693 32.0088C41.8693 26.5635 37.455 22.1494 32.0098 22.1494ZM32.0098 38.4088C28.4752 38.4088 25.6098 35.5433 25.6098 32.0088C25.6098 28.4742 28.4752 25.6088 32.0098 25.6088C35.5445 25.6088 38.4098 28.4742 38.4098 32.0088C38.4098 35.5433 35.5445 38.4088 32.0098 38.4088Z" fill="white"/>
<path d="M44.5611 21.7539C44.5611 23.0262 43.5296 24.0579 42.2571 24.0579C40.9846 24.0579 39.9531 23.0262 39.9531 21.7539C39.9531 20.4814 40.9846 19.4497 42.2571 19.4497C43.5296 19.4497 44.5611 20.4814 44.5611 21.7539Z" fill="white"/>
</svg>
